<svg xmlns="http://www.w3.org/2000/svg" viewBox="0 0 578 258.64"><defs><style>.cls-1{isolation:isolate;}.cls-2{mix-blend-mode:overlay;}.cls-3{fill:#fff;}</style></defs><g class="cls-1"><g id="Layer_1" data-name="Layer 1"><g class="cls-2"><path class="cls-3" d="M781.57,614.33A55.5,55.5,0,1,1,763.09,573,55.29,55.29,0,0,1,781.57,614.33Z" transform="translate(-670.72 -411.11)"/><rect class="cls-3" width="110.85" height="46.19"/><rect class="cls-3" y="73.9" width="110.85" height="46.19"/><path class="cls-3" d="M898.05,446.94v79.24H876V494.37H849.16v31.81h-22V446.94h22v29.79H876V446.94Z" transform="translate(-670.72 -411.11)"/><path class="cls-3" d="M910.58,477.51a26.84,26.84,0,0,1,9.67-11.23,24.66,24.66,0,0,1,13.65-3.94,23,23,0,0,1,11.24,2.59,18.72,18.72,0,0,1,7.31,7v-8.76h22v63h-22v-8.77a18.57,18.57,0,0,1-7.37,7A23,23,0,0,1,933.9,527,24.66,24.66,0,0,1,920.25,523a26.77,26.77,0,0,1-9.67-11.29,43.14,43.14,0,0,1,0-34.23Zm38.55,7.54a11.39,11.39,0,0,0-16.35-.06q-3.27,3.43-3.26,9.61t3.26,9.61a10.66,10.66,0,0,0,8.2,3.54,10.79,10.79,0,0,0,8.15-3.49q3.32-3.48,3.32-9.66T949.13,485.05Z" transform="translate(-670.72 -411.11)"/><path class="cls-3" d="M1088.16,469.76q6.81,7.2,6.8,19.67v36.75h-22V492.35c0-3.37-.93-6-2.81-7.87a11.79,11.79,0,0,0-15.28,0c-1.88,1.88-2.81,4.5-2.81,7.87v33.83h-22V492.35q0-5.06-2.76-7.87a10.13,10.13,0,0,0-7.58-2.81,10.51,10.51,0,0,0-7.76,2.81q-2.8,2.82-2.81,7.87v33.83h-22v-63h22v8.32a21.25,21.25,0,0,1,7.59-6.47,23,23,0,0,1,10.73-2.41,25.11,25.11,0,0,1,12.42,3,22.13,22.13,0,0,1,8.6,8.54,26.11,26.11,0,0,1,8.88-8.37,23.66,23.66,0,0,1,12.14-3.2Q1081.36,462.57,1088.16,469.76Z" transform="translate(-670.72 -411.11)"/><path class="cls-3" d="M1127.89,507.86h26.87v18.32h-51.14V508.76l25.06-27.31h-24.84V463.13h50v17.42Z" transform="translate(-670.72 -411.11)"/><path class="cls-3" d="M1163.91,477.51a27,27,0,0,1,9.67-11.23,24.69,24.69,0,0,1,13.66-3.94,23,23,0,0,1,11.24,2.59,18.69,18.69,0,0,1,7.3,7v-8.76h22v63h-22v-8.77a18.54,18.54,0,0,1-7.36,7,23.08,23.08,0,0,1-11.18,2.59,24.69,24.69,0,0,1-13.66-3.94,26.91,26.91,0,0,1-9.67-11.29,43.14,43.14,0,0,1,0-34.23Zm38.56,7.54a11.4,11.4,0,0,0-16.36-.06q-3.25,3.43-3.26,9.61t3.26,9.61a11.28,11.28,0,0,0,16.36.05q3.32-3.48,3.31-9.66T1202.47,485.05Z" transform="translate(-670.72 -411.11)"/><path class="cls-3" d="M847.48,629.22a39,39,0,0,1-14.78-14.5,43,43,0,0,1,0-41.92,38.48,38.48,0,0,1,14.78-14.45,43.15,43.15,0,0,1,41,0,38.13,38.13,0,0,1,14.67,14.45,43.38,43.38,0,0,1,0,41.92,38.53,38.53,0,0,1-14.72,14.5,42.69,42.69,0,0,1-40.91,0Zm33.77-20.74q4.89-5.51,4.89-14.72,0-9.45-4.89-14.9t-13.32-5.45q-8.53,0-13.37,5.45t-4.84,14.9q0,9.33,4.84,14.78T867.93,614Q876.36,614,881.25,608.48Z" transform="translate(-670.72 -411.11)"/><path class="cls-3" d="M982.91,570.6v63.06H960.77v-9a20.87,20.87,0,0,1-7.76,6.91,23.71,23.71,0,0,1-11.35,2.64q-11,0-17.36-7.25T918,607.24V570.6h21.91v33.83q0,5.4,2.87,8.49a10.93,10.93,0,0,0,15.23,0q2.81-3.09,2.81-8.49V570.6Z" transform="translate(-670.72 -411.11)"/><path class="cls-3" d="M995.44,585a26.87,26.87,0,0,1,9.67-11.24,24.73,24.73,0,0,1,13.65-3.93A23.07,23.07,0,0,1,1030,572.4a18.81,18.81,0,0,1,7.31,7V570.6h22v63.06h-22v-8.77a18.68,18.68,0,0,1-7.36,7,23.23,23.23,0,0,1-11.19,2.58,24.73,24.73,0,0,1-13.65-3.93,26.8,26.8,0,0,1-9.67-11.3,43.12,43.12,0,0,1,0-34.22Zm32.65-27.65-18.09,9V551.61l18.09-8.66,17.87,8.66v14.72Zm5.9,35.18a11.41,11.41,0,0,0-16.35-.06q-3.25,3.43-3.26,9.61t3.26,9.61a10.67,10.67,0,0,0,8.2,3.54,10.8,10.8,0,0,0,8.15-3.48q3.32-3.48,3.32-9.67T1034,592.52Z" transform="translate(-670.72 -411.11)"/><path class="cls-3" d="M1071.87,585a26.77,26.77,0,0,1,9.72-11.24,25,25,0,0,1,13.71-3.93,22.8,22.8,0,0,1,10.85,2.53,19,19,0,0,1,7.47,6.91V550.48h22.15v83.18h-22.15v-8.77a18.65,18.65,0,0,1-7.3,7,22.88,22.88,0,0,1-11.13,2.58,24.73,24.73,0,0,1-13.65-3.93,26.8,26.8,0,0,1-9.67-11.3,43.12,43.12,0,0,1,0-34.22Zm38.55,7.53a11.41,11.41,0,0,0-16.35-.06q-3.27,3.43-3.26,9.61t3.26,9.61a10.66,10.66,0,0,0,8.2,3.54,10.82,10.82,0,0,0,8.15-3.48q3.32-3.48,3.32-9.67T1110.42,592.52Z" transform="translate(-670.72 -411.11)"/><path class="cls-3" d="M1148.3,585a26.77,26.77,0,0,1,9.72-11.24,25,25,0,0,1,13.71-3.93,22.8,22.8,0,0,1,10.85,2.53,19,19,0,0,1,7.47,6.91V550.48h22.14v83.18h-22.14v-8.77a18.71,18.71,0,0,1-7.3,7,22.88,22.88,0,0,1-11.13,2.58,24.79,24.79,0,0,1-13.66-3.93,26.85,26.85,0,0,1-9.66-11.3,43.12,43.12,0,0,1,0-34.22Zm38.55,7.53a11.41,11.41,0,0,0-16.35-.06q-3.27,3.43-3.26,9.61t3.26,9.61a10.66,10.66,0,0,0,8.2,3.54,10.82,10.82,0,0,0,8.15-3.48q3.32-3.48,3.31-9.67T1186.85,592.52Z" transform="translate(-670.72 -411.11)"/><path class="cls-3" d="M1226.52,561.56a10.4,10.4,0,0,1-3.54-8,10.7,10.7,0,0,1,3.54-8.21,13.33,13.33,0,0,1,9.39-3.25,13.15,13.15,0,0,1,9.27,3.25,10.7,10.7,0,0,1,3.54,8.21,10.4,10.4,0,0,1-3.54,8,13.31,13.31,0,0,1-9.27,3.2A13.48,13.48,0,0,1,1226.52,561.56Zm20.29,9v63.06h-22V570.6Z" transform="translate(-670.72 -411.11)"/></g></g></g></svg>