<svg width="216" height="500" viewBox="0 0 216 500" fill="none" xmlns="http://www.w3.org/2000/svg">
<path d="M215.1 392.7C215.1 424.4 201.3 452.9 179.4 472.5C169.1 481.7 157 489 143.7 493.7C132.5 497.6 120.5 499.8 108 499.8C95.5 499.8 83.5 497.6 72.3 493.7C59 489 46.9 481.8 36.6 472.5C14.7 452.9 0.899994 424.4 0.899994 392.7C0.899994 361 14.7 332.5 36.6 312.9C46.9 303.7 59 296.4 72.3 291.7C83.5 287.8 95.5 285.6 108 285.6C120.5 285.6 132.5 287.8 143.7 291.7C157 296.4 169.1 303.6 179.4 312.9C201.3 332.5 215.1 361 215.1 392.7Z" fill="#4B5563" fill-opacity="0.2"/>
<path d="M215.1 0.100006H0.899994V89.3H215.1V0.100006Z" fill="#4B5563" fill-opacity="0.2"/>
<path d="M215.1 142.8H0.899994V232H215.1V142.8Z" fill="#4B5563" fill-opacity="0.2"/>
</svg>
