<?xml version="1.0" encoding="utf-8"?>
<!-- Generator: Adobe Illustrator 26.0.0, SVG Export Plug-In . SVG Version: 6.00 Build 0)  -->
<svg version="1.1" id="Layer_1" xmlns="http://www.w3.org/2000/svg" xmlns:xlink="http://www.w3.org/1999/xlink" x="0px" y="0px"
	 viewBox="0 0 500 500" style="enable-background:new 0 0 500 500;" xml:space="preserve">
<style type="text/css">
	.st0{fill:#4B5563;}
</style>
<g>
	<path class="st0" d="M357.1,392.7c0,31.7-13.8,60.2-35.7,79.8c-10.3,9.2-22.4,16.5-35.7,21.2c-11.2,3.9-23.2,6.1-35.7,6.1
		s-24.5-2.2-35.7-6.1c-13.3-4.7-25.4-11.9-35.7-21.2c-21.9-19.6-35.7-48.1-35.7-79.8s13.8-60.2,35.7-79.8
		c10.3-9.2,22.4-16.5,35.7-21.2c11.2-3.9,23.2-6.1,35.7-6.1s24.5,2.2,35.7,6.1c13.3,4.7,25.4,11.9,35.7,21.2
		C343.3,332.5,357.1,361,357.1,392.7z"/>
	<rect x="142.9" y="0.1" class="st0" width="214.2" height="89.2"/>
	<rect x="142.9" y="142.8" class="st0" width="214.2" height="89.2"/>
</g>
</svg>
